<?xml version="1.0" encoding="UTF-8" standalone="no"?>
<!DOCTYPE svg PUBLIC "-//W3C//DTD SVG 1.1//EN" "http://www.w3.org/Graphics/SVG/1.1/DTD/svg11.dtd">
<svg width="100%" height="100%" viewBox="0 0 1139 1030" version="1.1" xmlns="http://www.w3.org/2000/svg" xmlns:xlink="http://www.w3.org/1999/xlink" xml:space="preserve" xmlns:serif="http://www.serif.com/" style="fill-rule:evenodd;clip-rule:evenodd;stroke-linecap:round;stroke-linejoin:round;stroke-miterlimit:1.5;">
    <g transform="matrix(1,0,0,1,-764.131,-508.201)">
        <g id="Calque2" transform="matrix(1.42225,0,0,1.42225,-206.577,13.5332)">
            <path d="M1100.34,589.565C1089.02,642.034 1078.33,682.394 1060.9,735.753C1016.85,870.578 1003.57,941.333 1108.63,1024C1132.92,1043.11 1124.31,1071.92 1124.31,1071.92C1130.42,1058.89 1137.47,1043.48 1150.91,1041.58C1236.07,1029.54 1263.31,1013.03 1295.61,970.344C1332.66,921.378 1339.26,833.094 1387.06,664.601C1286.9,653.279 1191.81,627.139 1100.34,589.565ZM1132.41,920.459C1147.82,909.719 1160.82,905.607 1171.02,908.363C1181.23,911.12 1188.64,920.745 1192.86,937.478C1178.36,924.779 1160.14,918.473 1132.41,920.459ZM1239.33,818.109C1253.11,808.532 1264.71,805.811 1274.25,809.53C1283.79,813.249 1291.27,823.409 1296.83,839.594C1282.17,826.034 1262.95,818.959 1239.33,818.109ZM1097.18,782.279C1112.4,771.759 1125.07,768.508 1135.33,772.099C1145.59,775.689 1153.45,786.123 1159.05,802.973C1140.52,787.84 1119.85,781.117 1097.18,782.279ZM1191.68,737.108C1200.9,744.981 1206.46,756.277 1208.03,770.693C1216.55,758.288 1227.39,750.533 1239.33,747.173C1229.27,738.147 1222.68,727.784 1221.3,714.973C1214.22,726.33 1204.25,733.65 1191.68,737.108Z" style="fill:rgb(147,46,16);"/>
        </g>
        <g id="Calque4" transform="matrix(1.44183,0.368195,-0.351902,1.37803,788.19,-1081.52)">
            <g transform="matrix(0.926031,-0.247426,0.236477,0.968907,-465.621,919.058)">
                <path d="M1323.58,640.305C1338.57,600.193 1355.25,508.376 1357.46,481.911C1357.46,481.911 1385.63,455.775 1416.66,445.761C1480.92,425.025 1496.93,488.094 1466.93,544.776C1446.03,584.257 1416.11,629.5 1389.99,656.107C1367.4,653.845 1344.46,650.584 1321.21,646.355C1321.56,646.411 1322.4,644.234 1323.58,640.305ZM1171.42,603.476C1171.3,604.616 1171.19,605.755 1171.07,606.895L1171.12,607.469L1171.34,607.543L1171.34,607.573C1171.21,607.743 1171.13,607.705 1171.12,607.469C1148.12,599.892 1124.92,591.513 1101.54,582.387C1097.11,569.384 1085.27,535.341 1084.79,493.054C1083.93,416.631 1112,323.802 1182.19,395.545C1198.65,412.371 1209.35,446.844 1209.47,450.772L1209.31,451.101C1205.97,455.417 1200.12,475.02 1194.01,498.981C1186.83,526.263 1179.92,557.817 1175.64,579.891L1175.11,582.471L1174.53,585.554L1173.71,589.728L1173.43,591.411L1174.53,585.554L1175.64,579.891C1180.05,557.52 1187.19,525.562 1194.01,498.981C1199.27,478.853 1204.69,461.052 1209.31,451.101C1209.44,451.205 1209.5,451.087 1209.47,450.772C1220.92,426.195 1239.7,394.506 1245.72,387.844C1286.7,342.469 1327.3,338.508 1352.86,414.971C1354.42,419.643 1361.28,448.961 1357.46,481.911C1352.62,523.583 1331.08,615.843 1323.58,640.305L1321.21,646.355L1321.2,646.36L1321.21,646.355C1272.53,637.52 1222.46,624.472 1171.34,607.543L1171.25,606.659C1171.28,606.111 1171.31,605.564 1171.34,605.016L1173.71,589.728L1171.42,603.476Z" style="fill:rgb(253,214,145);stroke:rgb(126,82,35);stroke-width:3.52px;"/>
            </g>
            <g transform="matrix(0.926031,-0.247426,0.236477,0.968907,-465.621,919.058)">
                <path d="M1318.03,360.511C1399.9,422.456 1330.74,599.246 1321.21,646.355L1305.38,642.056C1329.06,557.945 1356.23,406.441 1318.03,360.511Z" style="fill:rgb(126,82,35);fill-opacity:0.45;stroke:rgb(126,82,35);stroke-width:0.12px;"/>
            </g>
            <path d="M919.636,1144.4C926.403,1144.45 932.318,1145.75 937.478,1148.17C942.639,1150.58 947.045,1154.11 950.794,1158.61C940.063,1157.21 929.672,1152.52 919.636,1144.4Z" style="fill:rgb(126,82,35);stroke:rgb(126,82,35);stroke-width:2.75px;"/>
            <path d="M802.532,1170.44C813.873,1171.09 824.883,1171.6 835.49,1171.95C846.098,1172.29 856.304,1172.47 866.036,1172.45C847.37,1179.95 825.837,1178.09 802.532,1170.44Z" style="fill:rgb(126,82,35);stroke:rgb(126,82,35);stroke-width:2.75px;"/>
            <path d="M924.455,1085.86C935.279,1085.25 944.932,1087.03 953.401,1091.23C961.869,1095.42 969.153,1102.04 975.239,1111.09C961.072,1100.39 943.858,1092.21 924.455,1085.86Z" style="fill:rgb(126,82,35);stroke:rgb(126,82,35);stroke-width:2.75px;"/>
            <path d="M720.553,1157.99C723.967,1152.95 727.696,1148.85 731.958,1146.35C736.219,1143.85 741.012,1142.94 746.552,1144.28C736.478,1147.76 728.185,1152.62 720.553,1157.99Z" style="fill:rgb(126,82,35);stroke:rgb(126,82,35);stroke-width:2.75px;"/>
            <path d="M808,1098.05C818.119,1092.97 828.403,1090.44 838.876,1090.87C849.349,1091.29 860.011,1094.65 870.886,1101.33C850.903,1096.61 830.37,1093.93 808,1098.05Z" style="fill:rgb(126,82,35);stroke:rgb(126,82,35);stroke-width:2.75px;"/>
            <path d="M950.248,1036.48C964.462,1037.48 975.034,1040.25 982.512,1044.51C989.99,1048.77 994.375,1054.53 996.213,1061.52C986.056,1050.76 969.717,1042.89 950.248,1036.48Z" style="fill:rgb(126,82,35);stroke:rgb(126,82,35);stroke-width:2.75px;"/>
            <path d="M695.538,1109.85C702.354,1100.37 709.853,1093.5 718.092,1089.48C726.33,1085.46 735.309,1084.28 745.084,1086.17C726.231,1089.19 710.056,1097.8 695.538,1109.85Z" style="fill:rgb(126,82,35);stroke:rgb(126,82,35);stroke-width:2.75px;"/>
            <path d="M807.933,1026.93C818.314,1020.95 828.397,1017.78 838.179,1017.47C847.961,1017.17 857.442,1019.72 866.619,1025.16C846.264,1021.96 826.779,1022.92 807.933,1026.93Z" style="fill:rgb(126,82,35);stroke:rgb(126,82,35);stroke-width:2.75px;"/>
            <path d="M674.09,1062.91C679.205,1053.98 685.487,1047.31 693.143,1043.29C700.799,1039.27 709.829,1037.91 720.444,1039.61C702.364,1042.23 687.349,1050.85 674.09,1062.91Z" style="fill:rgb(126,82,35);stroke:rgb(126,82,35);stroke-width:2.75px;"/>
            <g transform="matrix(0.926031,-0.247426,0.236477,0.968907,-465.621,919.058)">
                <path d="M1120.65,375.886C1079.54,406.812 1076.6,513.885 1100.91,581.73L1121.52,588.871C1090.98,495.184 1094.48,422.181 1120.65,375.886Z" style="fill:rgb(126,82,35);fill-opacity:0.44;stroke:rgb(126,82,35);stroke-width:0.12px;"/>
            </g>
            <g transform="matrix(0.926031,-0.247426,0.236477,0.968907,-465.621,919.058)">
                <path d="M1477.25,463.906C1497.29,527.712 1429.76,609.116 1391.12,654.785C1390.5,655.519 1372.15,653.786 1372.15,653.786C1420.7,605.91 1458.57,554.199 1477.25,463.906Z" style="fill:rgb(126,82,35);fill-opacity:0.45;stroke:rgb(126,82,35);stroke-width:0.12px;"/>
            </g>
        </g>
        <g id="Calque6" transform="matrix(1.40754,-0.204048,0.204048,1.40754,-308.658,346.773)">
            <g transform="matrix(0.906516,-0.422171,0.422171,0.906516,-1402.3,206.794)">
                <ellipse cx="1869.75" cy="1219.27" rx="9.015" ry="8.205" style="fill:rgb(218,142,25);stroke:rgb(176,118,56);stroke-width:3.52px;"/>
            </g>
            <g transform="matrix(0.906516,-0.422171,0.422171,0.906516,-1326.4,378.076)">
                <ellipse cx="1872.77" cy="970.077" rx="9.201" ry="8.145" style="fill:rgb(218,142,25);stroke:rgb(176,118,56);stroke-width:3.52px;"/>
            </g>
            <g transform="matrix(0.906516,-0.422171,0.422171,0.906516,-1402.3,206.794)">
                <path d="M1866.83,1030.76C1859.19,1043.08 1853.16,1055.47 1848.86,1067.66C1839.5,1110.47 1901.43,1105.89 1888.46,1067.77C1885.81,1058.32 1877.51,1045.3 1866.83,1030.76Z" style="fill:rgb(218,142,25);stroke:rgb(176,118,56);stroke-width:3.52px;"/>
            </g>
            <g transform="matrix(0.953531,0.301295,-0.301295,0.953531,-666.233,-1164.44)">
                <path d="M1866.83,1030.76C1859.19,1043.08 1853.16,1055.47 1848.86,1067.66C1839.5,1110.47 1901.43,1105.89 1888.46,1067.77C1885.81,1058.32 1877.51,1045.3 1866.83,1030.76Z" style="fill:rgb(218,142,25);stroke:rgb(176,118,56);stroke-width:3.52px;"/>
            </g>
            <g transform="matrix(0.953531,0.301295,-0.301295,0.953531,-640.568,-1106.52)">
                <path d="M1866.83,1030.76C1859.19,1043.08 1853.16,1055.47 1848.86,1067.66C1839.5,1110.47 1901.43,1105.89 1888.46,1067.77C1885.81,1058.32 1877.51,1045.3 1866.83,1030.76Z" style="fill:rgb(218,142,25);stroke:rgb(176,118,56);stroke-width:3.52px;"/>
            </g>
            <g transform="matrix(0.53784,-0.843047,0.843047,0.53784,-1146.02,1502.77)">
                <path d="M1866.83,1030.76C1859.19,1043.08 1853.16,1055.47 1848.86,1067.66C1839.5,1110.47 1901.43,1105.89 1888.46,1067.77C1885.81,1058.32 1877.51,1045.3 1866.83,1030.76Z" style="fill:rgb(218,142,25);stroke:rgb(176,118,56);stroke-width:3.52px;"/>
            </g>
            <g transform="matrix(0.53784,-0.843047,0.843047,0.53784,-1170.97,1446.28)">
                <path d="M1866.83,1030.76C1859.19,1043.08 1853.16,1055.47 1848.86,1067.66C1839.5,1110.47 1901.43,1105.89 1888.46,1067.77C1885.81,1058.32 1877.51,1045.3 1866.83,1030.76Z" style="fill:rgb(218,142,25);stroke:rgb(176,118,56);stroke-width:3.52px;"/>
            </g>
        </g>
        <g id="Calque61" serif:id="Calque6" transform="matrix(1.22424,0.72391,-0.72391,1.22424,579.286,-375.117)">
            <g transform="matrix(0.906516,-0.422171,0.422171,0.906516,-1402.3,206.794)">
                <ellipse cx="1869.75" cy="1219.27" rx="9.015" ry="8.205" style="fill:rgb(218,142,25);stroke:rgb(176,118,56);stroke-width:3.52px;"/>
            </g>
            <g transform="matrix(0.906516,-0.422171,0.422171,0.906516,-1326.4,378.076)">
                <ellipse cx="1872.77" cy="970.077" rx="9.201" ry="8.145" style="fill:rgb(218,142,25);stroke:rgb(176,118,56);stroke-width:3.52px;"/>
            </g>
            <g transform="matrix(0.906516,-0.422171,0.422171,0.906516,-1402.3,206.794)">
                <path d="M1866.83,1030.76C1859.19,1043.08 1853.16,1055.47 1848.86,1067.66C1839.5,1110.47 1901.43,1105.89 1888.46,1067.77C1885.81,1058.32 1877.51,1045.3 1866.83,1030.76Z" style="fill:rgb(218,142,25);stroke:rgb(176,118,56);stroke-width:3.52px;"/>
            </g>
            <g transform="matrix(0.953531,0.301295,-0.301295,0.953531,-666.233,-1164.44)">
                <path d="M1866.83,1030.76C1859.19,1043.08 1853.16,1055.47 1848.86,1067.66C1839.5,1110.47 1901.43,1105.89 1888.46,1067.77C1885.81,1058.32 1877.51,1045.3 1866.83,1030.76Z" style="fill:rgb(218,142,25);stroke:rgb(176,118,56);stroke-width:3.52px;"/>
            </g>
            <g transform="matrix(0.953531,0.301295,-0.301295,0.953531,-640.568,-1106.52)">
                <path d="M1866.83,1030.76C1859.19,1043.08 1853.16,1055.47 1848.86,1067.66C1839.5,1110.47 1901.43,1105.89 1888.46,1067.77C1885.81,1058.32 1877.51,1045.3 1866.83,1030.76Z" style="fill:rgb(218,142,25);stroke:rgb(176,118,56);stroke-width:3.52px;"/>
            </g>
            <g transform="matrix(0.53784,-0.843047,0.843047,0.53784,-1146.02,1502.77)">
                <path d="M1866.83,1030.76C1859.19,1043.08 1853.16,1055.47 1848.86,1067.66C1839.5,1110.47 1901.43,1105.89 1888.46,1067.77C1885.81,1058.32 1877.51,1045.3 1866.83,1030.76Z" style="fill:rgb(218,142,25);stroke:rgb(176,118,56);stroke-width:3.52px;"/>
            </g>
            <g transform="matrix(0.53784,-0.843047,0.843047,0.53784,-1170.97,1446.28)">
                <path d="M1866.83,1030.76C1859.19,1043.08 1853.16,1055.47 1848.86,1067.66C1839.5,1110.47 1901.43,1105.89 1888.46,1067.77C1885.81,1058.32 1877.51,1045.3 1866.83,1030.76Z" style="fill:rgb(218,142,25);stroke:rgb(176,118,56);stroke-width:3.52px;"/>
            </g>
        </g>
        <g id="Calque62" serif:id="Calque6" transform="matrix(1.55011,0.314291,-0.314291,1.55011,-45.9219,-264.519)">
            <g transform="matrix(0.906516,-0.422171,0.422171,0.906516,-1402.3,206.794)">
                <ellipse cx="1869.75" cy="1219.27" rx="9.015" ry="8.205" style="fill:rgb(218,142,25);stroke:rgb(176,118,56);stroke-width:3.16px;"/>
            </g>
            <g transform="matrix(0.906516,-0.422171,0.422171,0.906516,-1402.3,206.794)">
                <ellipse cx="1868.51" cy="1279.9" rx="8.968" ry="9.731" style="fill:rgb(218,142,25);stroke:rgb(176,118,56);stroke-width:3.16px;"/>
            </g>
            <g transform="matrix(0.906516,-0.422171,0.422171,0.906516,-1326.4,378.076)">
                <ellipse cx="1872.77" cy="970.077" rx="9.201" ry="8.145" style="fill:rgb(218,142,25);stroke:rgb(176,118,56);stroke-width:3.16px;"/>
            </g>
            <g transform="matrix(0.906516,-0.422171,0.422171,0.906516,-1402.3,206.794)">
                <path d="M1866.83,1030.76C1859.19,1043.08 1853.16,1055.47 1848.86,1067.66C1839.5,1110.47 1901.43,1105.89 1888.46,1067.77C1885.81,1058.32 1877.51,1045.3 1866.83,1030.76Z" style="fill:rgb(218,142,25);stroke:rgb(176,118,56);stroke-width:3.16px;"/>
            </g>
            <g transform="matrix(0.953531,0.301295,-0.301295,0.953531,-666.233,-1164.44)">
                <path d="M1866.83,1030.76C1859.19,1043.08 1853.16,1055.47 1848.86,1067.66C1839.5,1110.47 1901.43,1105.89 1888.46,1067.77C1885.81,1058.32 1877.51,1045.3 1866.83,1030.76Z" style="fill:rgb(218,142,25);stroke:rgb(176,118,56);stroke-width:3.16px;"/>
            </g>
            <g transform="matrix(0.953531,0.301295,-0.301295,0.953531,-640.568,-1106.52)">
                <path d="M1866.83,1030.76C1859.19,1043.08 1853.16,1055.47 1848.86,1067.66C1839.5,1110.47 1901.43,1105.89 1888.46,1067.77C1885.81,1058.32 1877.51,1045.3 1866.83,1030.76Z" style="fill:rgb(218,142,25);stroke:rgb(176,118,56);stroke-width:3.16px;"/>
            </g>
            <g transform="matrix(0.972805,0.231624,-0.231624,0.972805,-725.088,-938.886)">
                <path d="M1866.83,1030.76C1859.19,1043.08 1853.16,1055.47 1848.86,1067.66C1839.5,1110.47 1901.43,1105.89 1888.46,1067.77C1885.81,1058.32 1877.51,1045.3 1866.83,1030.76Z" style="fill:rgb(218,142,25);stroke:rgb(176,118,56);stroke-width:3.16px;"/>
            </g>
            <g transform="matrix(0.53784,-0.843047,0.843047,0.53784,-1121.07,1559.26)">
                <path d="M1866.83,1030.76C1859.19,1043.08 1853.16,1055.47 1848.86,1067.66C1839.5,1110.47 1901.43,1105.89 1888.46,1067.77C1885.81,1058.32 1877.51,1045.3 1866.83,1030.76Z" style="fill:rgb(218,142,25);stroke:rgb(176,118,56);stroke-width:3.16px;"/>
            </g>
            <g transform="matrix(0.53784,-0.843047,0.843047,0.53784,-1146.02,1502.77)">
                <path d="M1866.83,1030.76C1859.19,1043.08 1853.16,1055.47 1848.86,1067.66C1839.5,1110.47 1901.43,1105.89 1888.46,1067.77C1885.81,1058.32 1877.51,1045.3 1866.83,1030.76Z" style="fill:rgb(218,142,25);stroke:rgb(176,118,56);stroke-width:3.16px;"/>
            </g>
            <g transform="matrix(0.53784,-0.843047,0.843047,0.53784,-1170.97,1446.28)">
                <path d="M1866.83,1030.76C1859.19,1043.08 1853.16,1055.47 1848.86,1067.66C1839.5,1110.47 1901.43,1105.89 1888.46,1067.77C1885.81,1058.32 1877.51,1045.3 1866.83,1030.76Z" style="fill:rgb(218,142,25);stroke:rgb(176,118,56);stroke-width:3.16px;"/>
            </g>
        </g>
        <g id="Calque3" transform="matrix(1.42225,0,0,1.42225,-206.577,13.5332)">
            <path d="M1035.88,781.011C1003.53,901.715 1011.61,939.222 1061.81,998.574C1043.89,1017.25 1037.39,1023.87 1007.21,1042.51C897.808,1039.33 823.708,995.2 806.994,884.52C788.571,810.736 768.18,736.953 746.441,663.17C856.703,650.77 954.192,624.673 1036.83,582.645L1062.7,694.246C1051.69,726.578 1042.87,754.999 1036.09,780.216C1036.43,780.468 1036.76,780.723 1037.1,780.984C1036.69,780.991 1036.29,781 1035.88,781.011ZM945.664,932.921C957.25,935.157 967.966,935.318 977.599,932.898C987.233,930.479 995.785,925.479 1003.04,917.392C990.144,951.982 970.897,955.673 945.664,932.921ZM842.817,836.581C848.022,821.193 855.783,811.641 866.314,808.417C876.845,805.193 890.146,808.296 906.433,818.218C881.92,817.973 861.197,825.022 842.817,836.581ZM1036.09,780.216L1035.89,780.972L1035.88,781.011C1015.39,781.587 997.573,788.3 981.648,799.384C988.593,784.036 996.716,774.986 1005.97,771.997C1014.96,769.097 1025.01,771.908 1036.09,780.216ZM902.702,744.88C909.764,734.318 913.887,723.486 915.302,712.405C922.417,722.253 932.872,728.973 945.393,733.758C929.376,733.491 915.356,737.665 902.702,744.88Z" style="fill:white;"/>
        </g>
    </g>
</svg>
